<svg xmlns="http://www.w3.org/2000/svg" width="14.134" height="14.134" viewBox="0 0 14.134 14.134">
  <path id="Icon_ionic-logo-whatsapp" data-name="Icon ionic-logo-whatsapp" d="M9.445,2.25A6.912,6.912,0,0,0,2.507,9.135a6.814,6.814,0,0,0,1,3.555L2.25,16.384l3.841-1.22A6.95,6.95,0,0,0,16.384,9.135,6.912,6.912,0,0,0,9.445,2.25Zm3.45,9.5a1.792,1.792,0,0,1-1.227.791c-.325.017-.335.252-2.109-.518A7.239,7.239,0,0,1,6.634,9.256,3.4,3.4,0,0,1,5.98,7.412,1.966,1.966,0,0,1,6.655,5.97a.679.679,0,0,1,.481-.2c.14,0,.23,0,.334,0s.258-.022.393.336.456,1.235.5,1.325a.321.321,0,0,1,0,.308,1.2,1.2,0,0,1-.188.287c-.093.1-.195.222-.277.3s-.188.176-.091.356a5.31,5.31,0,0,0,.939,1.254,4.841,4.841,0,0,0,1.391.925c.174.095.278.084.386-.029s.462-.5.587-.668.242-.138.4-.073,1.015.522,1.189.617.29.143.332.218A1.457,1.457,0,0,1,12.9,11.75Z" transform="translate(-2.25 -2.25)" fill="#fff"/>
</svg>
