<svg xmlns="http://www.w3.org/2000/svg" width="18.594" height="18.593" viewBox="0 0 18.594 18.593">
  <path id="Icon_awesome-medium" data-name="Icon awesome-medium" d="M0,2.25V20.843H18.594V2.25Zm15.448,4.4-1,.955a.293.293,0,0,0-.112.278v7.026a.286.286,0,0,0,.112.278l.975.955v.212h-4.9v-.2l1.009-.979c.1-.1.1-.129.1-.278V9.214L8.832,16.336H8.454L5.188,9.214v4.773a.656.656,0,0,0,.183.548l1.312,1.59v.212H2.955v-.212l1.312-1.59a.635.635,0,0,0,.17-.548V8.467a.474.474,0,0,0-.158-.407L3.113,6.653V6.442H6.736l2.8,6.142,2.461-6.138h3.453Z" transform="translate(0 -2.25)" fill="#fff"/>
</svg>
