<svg xmlns="http://www.w3.org/2000/svg" width="18.594" height="18.593" viewBox="0 0 18.594 18.593">
  <path id="Icon_awesome-linkedin" data-name="Icon awesome-linkedin" d="M17.266,2.25H1.324A1.334,1.334,0,0,0,0,3.591V19.5a1.334,1.334,0,0,0,1.324,1.341H17.266A1.337,1.337,0,0,0,18.594,19.5V3.591A1.337,1.337,0,0,0,17.266,2.25ZM5.62,18.187H2.864V9.314h2.76v8.873ZM4.242,8.1a1.6,1.6,0,1,1,1.6-1.6A1.6,1.6,0,0,1,4.242,8.1ZM15.95,18.187H13.194V13.871c0-1.029-.021-2.353-1.432-2.353-1.436,0-1.656,1.121-1.656,2.278v4.391H7.35V9.314H9.994v1.212h.037a2.9,2.9,0,0,1,2.611-1.432c2.789,0,3.308,1.839,3.308,4.229Z" transform="translate(0 -2.25)" fill="#fff"/>
</svg>
