<svg xmlns="http://www.w3.org/2000/svg" xmlns:xlink="http://www.w3.org/1999/xlink" width="36.594" height="36.593" viewBox="0 0 36.594 36.593">
  <defs>
    <filter id="Icon_awesome-behance-square" x="0" y="0" width="36.594" height="36.593" filterUnits="userSpaceOnUse">
      <feOffset dy="3" input="SourceAlpha"/>
      <feGaussianBlur stdDeviation="3" result="blur"/>
      <feFlood flood-opacity="0.161"/>
      <feComposite operator="in" in2="blur"/>
      <feComposite in="SourceGraphic"/>
    </filter>
  </defs>
  <g transform="matrix(1, 0, 0, 1, 0, 0)" filter="url(#Icon_awesome-behance-square)">
    <path id="Icon_awesome-behance-square-2" data-name="Icon awesome-behance-square" d="M7.741,13.082c0,.8-.581,1.054-1.295,1.054H4.574v-2.2H6.483C7.255,11.945,7.741,12.265,7.741,13.082Zm-.32-3.416c0-.735-.569-.909-1.2-.909H4.578v1.859H6.35C6.977,10.617,7.421,10.343,7.421,9.667Zm5.491.963A1.237,1.237,0,0,0,11.6,11.862h2.582A1.183,1.183,0,0,0,12.912,10.629Zm5.682-6.387V18.851A1.993,1.993,0,0,1,16.6,20.843H1.992A1.993,1.993,0,0,1,0,18.851V4.242A1.993,1.993,0,0,1,1.992,2.25H16.6A1.993,1.993,0,0,1,18.594,4.242ZM11.277,8.6h3.229V7.816H11.277ZM9.492,13.178a2.063,2.063,0,0,0-1.453-2.142A1.549,1.549,0,0,0,9.127,9.5c0-1.585-1.183-1.971-2.548-1.971H2.822V15.5H6.686C8.135,15.489,9.492,14.8,9.492,13.178Zm6.28-.614a2.837,2.837,0,0,0-2.806-3.129,2.9,2.9,0,0,0-2.951,3.055,2.812,2.812,0,0,0,2.951,3.03,2.573,2.573,0,0,0,2.7-1.942h-1.4a1.313,1.313,0,0,1-1.253.751A1.3,1.3,0,0,1,11.6,12.862h4.159C15.763,12.767,15.772,12.663,15.772,12.563Z" transform="translate(9 3.75)" fill="#fff"/>
  </g>
</svg>
