<svg xmlns="http://www.w3.org/2000/svg" width="18.604" height="18.599" viewBox="0 0 18.604 18.599">
  <path id="Icon_awesome-instagram" data-name="Icon awesome-instagram" d="M9.3,6.769a4.769,4.769,0,1,0,4.769,4.769A4.761,4.761,0,0,0,9.3,6.769Zm0,7.869a3.1,3.1,0,1,1,3.1-3.1A3.106,3.106,0,0,1,9.3,14.638Zm6.076-8.064a1.112,1.112,0,1,1-1.112-1.112A1.11,1.11,0,0,1,15.375,6.574ZM18.534,7.7a5.5,5.5,0,0,0-1.5-3.9,5.541,5.541,0,0,0-3.9-1.5C11.6,2.216,7,2.216,5.46,2.3a5.533,5.533,0,0,0-3.9,1.5A5.522,5.522,0,0,0,.06,7.7c-.087,1.536-.087,6.138,0,7.674a5.5,5.5,0,0,0,1.5,3.9,5.548,5.548,0,0,0,3.9,1.5c1.536.087,6.138.087,7.674,0a5.5,5.5,0,0,0,3.9-1.5,5.54,5.54,0,0,0,1.5-3.9C18.621,13.837,18.621,9.238,18.534,7.7ZM16.55,17.02a3.139,3.139,0,0,1-1.768,1.768c-1.224.486-4.13.374-5.483.374s-4.262.108-5.483-.374A3.139,3.139,0,0,1,2.048,17.02c-.486-1.224-.374-4.13-.374-5.482s-.108-4.262.374-5.483A3.139,3.139,0,0,1,3.816,4.287C5.041,3.8,7.946,3.913,9.3,3.913s4.262-.108,5.483.374A3.139,3.139,0,0,1,16.55,6.055c.486,1.224.374,4.13.374,5.483S17.035,15.8,16.55,17.02Z" transform="translate(0.005 -2.238)" fill="#fff"/>
</svg>
