<svg xmlns="http://www.w3.org/2000/svg" width="69" height="33" viewBox="0 0 69 33">
  <g id="logo" transform="translate(0 -6)">
    <ellipse id="Elipse_73" data-name="Elipse 73" cx="6.5" cy="5.5" rx="6.5" ry="5.5" transform="translate(0 6)" fill="#bd0094"/>
    <path id="Caminho_13" data-name="Caminho 13" d="M16.824,36.53H13.958a.626.626,0,0,1-.708-.708V15.558a.626.626,0,0,1,.708-.708h8.025A5.635,5.635,0,0,1,26.1,16.3a5.444,5.444,0,0,1,1.484,4.08v2.63q0,3.81-3,5.058V28.2l3.608,7.519q.3.809-.573.809H24.882a2.09,2.09,0,0,1-.877-.135,1,1,0,0,1-.438-.573L20.2,28.539H17.937q-.4,0-.4.371v6.912A.626.626,0,0,1,16.824,36.53ZM17.9,25.1h3.3a2.383,2.383,0,0,0,1.585-.438,1.942,1.942,0,0,0,.506-1.484v-2.63a1.992,1.992,0,0,0-.506-1.517,2.264,2.264,0,0,0-1.585-.472H17.9a.328.328,0,0,0-.371.371v5.8A.328.328,0,0,0,17.9,25.1ZM31.15,31v-.674a.626.626,0,0,1,.708-.708h2.866a.626.626,0,0,1,.708.708v.27a2.367,2.367,0,0,0,.506,1.753,2.748,2.748,0,0,0,1.854.472h1.585a2.556,2.556,0,0,0,1.821-.506,2.56,2.56,0,0,0,.539-1.888v-.4a1.642,1.642,0,0,0-.809-1.484,3.958,3.958,0,0,0-1.956-.641,24.278,24.278,0,0,1-2.563-.371,19.645,19.645,0,0,1-2.529-.742A4.185,4.185,0,0,1,31.891,25a6.832,6.832,0,0,1-.775-3.439V20.38A5.444,5.444,0,0,1,32.6,16.3a5.635,5.635,0,0,1,4.114-1.45h3.372a5.683,5.683,0,0,1,4.147,1.45,5.444,5.444,0,0,1,1.484,4.08v.641a.626.626,0,0,1-.708.708H42.142a.626.626,0,0,1-.708-.708v-.2a2.424,2.424,0,0,0-.506-1.787,2.748,2.748,0,0,0-1.854-.472H37.758a2.56,2.56,0,0,0-1.888.539,3.083,3.083,0,0,0-.472,2.023v.641q0,1.585,2.765,1.821a17.116,17.116,0,0,1,5.091,1.146A4.213,4.213,0,0,1,45.21,26.55a6.1,6.1,0,0,1,.809,3.3V31a5.444,5.444,0,0,1-1.484,4.08,5.635,5.635,0,0,1-4.114,1.45H36.747a5.635,5.635,0,0,1-4.114-1.45A5.444,5.444,0,0,1,31.15,31Zm22.222,5.53h-2.8a.626.626,0,0,1-.708-.708V15.558a.626.626,0,0,1,.708-.708H53.1a.951.951,0,0,1,.944.472L60.857,28.1h.135V15.558a.626.626,0,0,1,.708-.708h2.8a.626.626,0,0,1,.708.708V35.822a.626.626,0,0,1-.708.708H62.037a1.128,1.128,0,0,1-1.079-.674L54.214,23.313H54.08V35.822A.626.626,0,0,1,53.372,36.53Z" transform="translate(-4.315 -2.882)" fill="#fff"/>
    <ellipse id="Elipse_74" data-name="Elipse 74" cx="6.5" cy="5.5" rx="6.5" ry="5.5" transform="translate(56 28)" fill="#00bdb2"/>
  </g>
</svg>
